<svg xmlns="http://www.w3.org/2000/svg" viewBox="0 0 24 24"><path d="M8.1 12.2c0-2.2 1.8-4 4-4s4 1.8 4 4-1.8 4-4 4-4-1.8-4-4m-2.2 0c0 3.4 2.8 6.2 6.2 6.2 3.4 0 6.2-2.8 6.2-6.2 0-3.4-2.8-6.2-6.2-6.2-3.4.1-6.2 2.8-6.2 6.2m11.2-6.4c0 .8.6 1.4 1.4 1.4.8 0 1.4-.6 1.4-1.4 0-.8-.6-1.4-1.4-1.4-.8 0-1.4.6-1.4 1.4M7.3 22c-.8 0-1.5-.1-2.2-.4-1-.4-1.9-1.2-2.3-2.3-.3-.7-.4-1.5-.4-2.2-.1-1.3-.1-1.6-.1-4.8s0-3.6.1-4.8c0-.8.1-1.5.4-2.2.4-1.2 1.2-2 2.2-2.4.7-.3 1.5-.4 2.2-.4 1.3-.1 1.6-.1 4.8-.1s3.6 0 4.8.1c.8 0 1.5.1 2.2.4 1 .4 1.9 1.2 2.3 2.3.3.7.4 1.5.4 2.2.1 1.3.1 1.6.1 4.8s0 3.6-.1 4.8c0 .8-.1 1.5-.4 2.2-.4 1-1.2 1.9-2.3 2.3-.5.3-1.3.5-2 .5-1.3.1-1.6.1-4.8.1S8.5 22 7.3 22M7.2.3c-1 0-2 .2-2.9.6-1.7.6-2.9 1.8-3.6 3.5-.3.9-.5 1.9-.5 2.9C.1 8.6.1 9 .1 12.2s0 3.7.1 4.9c0 1 .2 2 .6 2.9.6 1.6 1.9 2.9 3.5 3.5.9.3 1.9.5 2.9.6 1.3.1 1.7.1 4.9.1s3.7 0 4.9-.1c1 0 2-.2 2.9-.6 1.6-.6 2.9-1.9 3.5-3.5.3-.9.5-1.9.6-2.9.1-1.3.1-1.7.1-4.9s0-3.7-.1-4.9c0-1-.2-2-.6-2.9-.6-1.6-1.9-2.9-3.5-3.5C19 .6 18 .4 17 .3 15.7.2 15.3.2 12.1.2S8.4.2 7.2.3"/></svg>