<?xml version="1.0" encoding="utf-8"?>
<!-- Generator: Adobe Illustrator 26.0.1, SVG Export Plug-In . SVG Version: 6.00 Build 0)  -->
<svg version="1.1" id="Layer_1" xmlns="http://www.w3.org/2000/svg" xmlns:xlink="http://www.w3.org/1999/xlink" x="0px" y="0px"
	 viewBox="0 0 100 89.3" style="enable-background:new 0 0 100 89.3;" xml:space="preserve">

<path class="st0" d="M100,45.4c0-6.1-4.9-11-11-11c-3,0-5.6,1.1-7.6,3.1c-7.5-5.4-17.8-8.9-29.3-9.3l5-23.5l16.3,3.4
	c0.2,4.1,3.6,7.5,7.8,7.5c4.3,0,7.8-3.5,7.8-7.8c0-4.3-3.5-7.8-7.8-7.8c-3.1,0-5.7,1.8-6.9,4.4L56.2,0.5c-0.5-0.1-1.1,0-1.5,0.3
	C54.2,1.1,54,1.5,53.8,2l-5.5,26.2c-11.7,0.4-22.1,3.8-29.7,9.3c-1.9-1.8-4.7-3.1-7.6-3.1c-6.1,0-11,4.9-11,11c0,4.5,2.6,8.3,6.5,10
	c-0.2,1.1-0.3,2.2-0.3,3.3c0,16.9,19.6,30.5,43.8,30.5s43.8-13.6,43.8-30.5c0-1.1-0.1-2.2-0.3-3.3C97.3,53.8,100,49.9,100,45.4z
	 M24.9,53.3c0-4.3,3.5-7.8,7.8-7.8s7.8,3.5,7.8,7.8s-3.5,7.8-7.8,7.8S24.9,57.6,24.9,53.3z M68.5,73.9C63.2,79.3,53,79.6,50,79.6
	c-3,0-13.3-0.4-18.5-5.7c-0.8-0.8-0.8-2.1,0-2.9c0.8-0.8,2.1-0.8,2.9,0c3.3,3.3,10.5,4.6,15.7,4.6s12.3-1.2,15.7-4.6
	c0.8-0.8,2.1-0.8,2.9,0C69.3,71.9,69.3,73.1,68.5,73.9z M67.1,61.1c-4.3,0-7.8-3.5-7.8-7.8s3.5-7.8,7.8-7.8s7.8,3.5,7.8,7.8
	S71.4,61.1,67.1,61.1z"/>
</svg>
