<svg xmlns="http://www.w3.org/2000/svg" width="40.492" height="59.438" viewBox="0 0 40.492 59.438"><path d="M21.836-58.156a28.185,28.185,0,0,1,8.193,1.1,17.611,17.611,0,0,1,6.27,3.333,14.318,14.318,0,0,1,3.975,5.316,17.537,17.537,0,0,1,1.32,6.96,12.511,12.511,0,0,1-2.478,7.481A15.868,15.868,0,0,1,33.7-29.273a14.152,14.152,0,0,1,6.342,4.927,14.539,14.539,0,0,1,2.451,8.408A16.871,16.871,0,0,1,41.065-8.9a15.413,15.413,0,0,1-4.282,5.5,19.3,19.3,0,0,1-6.59,3.52,28.093,28.093,0,0,1-8.357,1.165A25.735,25.735,0,0,1,13.943.134a19.027,19.027,0,0,1-6.352-3.46A15.212,15.212,0,0,1,2-15.586v-.5H14.289v.5a6.012,6.012,0,0,0,2.225,4.853,8.406,8.406,0,0,0,5.6,1.913,8.455,8.455,0,0,0,5.968-1.995A6.812,6.812,0,0,0,30.2-16.094c0-5.394-2.9-8.016-8.875-8.016H14.852v-9.828h6.516c2.71,0,4.731-.671,6.007-2a7.425,7.425,0,0,0,1.93-5.356,6.43,6.43,0,0,0-1.892-4.986,7.5,7.5,0,0,0-5.3-1.78,7.881,7.881,0,0,0-5.114,1.665,5.163,5.163,0,0,0-2,4.241v.5H2.7v-.5a14.437,14.437,0,0,1,2.489-8.269,16.573,16.573,0,0,1,6.923-5.7A23.022,23.022,0,0,1,21.836-58.156Zm0,58.438c5.92,0,10.735-1.5,14.31-4.456a14.555,14.555,0,0,0,5.346-11.763,13.56,13.56,0,0,0-2.275-7.842,13.709,13.709,0,0,0-6.924-4.969l-1.162-.415,1.123-.51a15.057,15.057,0,0,0,6.052-4.878,11.531,11.531,0,0,0,2.287-6.894c0-4.874-1.662-8.748-4.94-11.512-3.3-2.786-7.952-4.2-13.818-4.2a22.031,22.031,0,0,0-9.3,1.946,15.589,15.589,0,0,0-6.515,5.354,13.378,13.378,0,0,0-2.308,7.207h10.3a6.141,6.141,0,0,1,2.356-4.517,8.854,8.854,0,0,1,5.745-1.889A8.462,8.462,0,0,1,28.1-47.006a7.469,7.469,0,0,1,2.21,5.717,8.388,8.388,0,0,1-2.21,6.05c-1.472,1.527-3.735,2.3-6.727,2.3H15.852v7.828h5.477c3.239,0,5.717.76,7.367,2.259S31.2-19.066,31.2-16.094a7.861,7.861,0,0,1-2.444,6.01A9.412,9.412,0,0,1,22.109-7.82,9.378,9.378,0,0,1,15.869-9.97,7,7,0,0,1,13.3-15.086H3.007A14.17,14.17,0,0,0,8.23-4.1C11.727-1.191,16.305.281,21.836.281Z" transform="translate(-2 58.156)" fill="#707070"/></svg>