<svg xmlns="http://www.w3.org/2000/svg" width="41.117" height="58.656" viewBox="0 0 41.117 58.656"><path d="M43.352.5H3.367V-7.932L21.9-27.683a45.119,45.119,0,0,0,5.542-7.141,11.177,11.177,0,0,0,1.747-5.606A8.248,8.248,0,0,0,27.4-46.056a6.381,6.381,0,0,0-5.094-2A6.917,6.917,0,0,0,16.653-45.6a10.009,10.009,0,0,0-2.09,6.613v.5H2.234v-.5a19.224,19.224,0,0,1,2.547-9.742,18.054,18.054,0,0,1,7.208-6.928,21.9,21.9,0,0,1,10.511-2.5,27.071,27.071,0,0,1,7.955,1.077,16.568,16.568,0,0,1,6.025,3.264,13.854,13.854,0,0,1,3.783,5.277,18.522,18.522,0,0,1,1.253,7.015,19.7,19.7,0,0,1-2.24,8.817A48.462,48.462,0,0,1,31.7-22.4l-.007.007L19.562-9.6h23.79ZM4.367-.5H42.352V-8.6H17.235L30.962-23.075a47.5,47.5,0,0,0,7.419-10.079,18.717,18.717,0,0,0,2.135-8.37c0-4.955-1.578-8.836-4.691-11.536-3.133-2.718-7.617-4.1-13.325-4.1a20.915,20.915,0,0,0-10.036,2.382,17.068,17.068,0,0,0-6.816,6.548A18.151,18.151,0,0,0,3.24-39.484H13.57a10.741,10.741,0,0,1,2.316-6.755A7.962,7.962,0,0,1,22.3-49.055a7.415,7.415,0,0,1,5.844,2.337,9.205,9.205,0,0,1,2.039,6.288A12.15,12.15,0,0,1,28.3-34.317a46.087,46.087,0,0,1-5.667,7.31l0,0L4.367-7.537Z" transform="translate(-2.234 58.156)" fill="#707070"/></svg>